<svg class="kk-main-step-heading-edit" width="20" height="20" viewBox="0 0 26 25" fill="none" xmlns="http://www.w3.org/2000/svg">
 <path fill-rule="evenodd" clip-rule="evenodd" d="M20.6959 2.32515C20.5417 2.32515 20.3891 2.3557 20.2469 2.41502C20.1046 2.47435 19.9755 2.56128 19.867 2.67079L19.8659 2.67191L18.2003 4.3375L21.5651 7.73881L24.0592 5.23624L21.5247 2.67079L21.5245 2.6705C21.416 2.56113 21.287 2.4743 21.1449 2.41502C21.0026 2.3557 20.85 2.32515 20.6959 2.32515ZM16.7903 3.86189C16.7772 3.87494 16.7648 3.88841 16.7531 3.90224L2.61019 18.0451C2.52473 18.1306 2.46411 18.2377 2.43481 18.3549L0.981476 24.1716C0.924711 24.3988 0.991309 24.6391 1.15692 24.8047C1.32253 24.9702 1.56286 25.0368 1.79004 24.9799L7.60671 23.5249C7.72448 23.4955 7.83197 23.4344 7.91758 23.3484L22.0263 9.16471L22.0356 9.15556L25.9376 5.24035L22.4726 1.73309L22.472 1.73246C22.2396 1.4978 21.9629 1.31152 21.6581 1.1844C21.3532 1.05727 21.0262 0.991821 20.6959 0.991821C20.3656 0.991821 20.0386 1.05727 19.7337 1.1844C19.4294 1.3113 19.1532 1.49715 18.921 1.73124L16.7903 3.86189ZM3.64479 19.0127L2.54438 23.4168L6.94751 22.3154L3.64479 19.0127ZM4.52933 18.0116L7.94643 21.4287L20.6242 8.68359L17.2591 5.28191L4.52933 18.0116Z" fill="#0D0D0D"/> </svg>